<svg width="450" height="450" viewBox="0 0 450 450" fill="none" xmlns="http://www.w3.org/2000/svg">
<g filter="url(#filter0_d_101_17)">
<path fill-rule="evenodd" clip-rule="evenodd" d="M244.173 14.9835C232.437 12.0335 220.09 11.9307 208.307 14.6851C116.414 34.4578 21.8598 91.2898 21.0102 193.399C21.4984 205.383 22.5747 217.372 27.7714 228.825C40.4741 256.884 69.7062 277.094 99.0285 286.466C97.1887 295.579 94.1824 303.54 91.1714 312.072C80.9671 337.089 84.2624 365.07 99.3691 386.874C143.513 452.276 301.676 453.592 346.902 388.933C362.37 367.384 365.542 339.457 356.344 314.279C352.887 305.693 350.606 297.117 348.326 288.54C348.914 288.545 349.502 288.55 350.09 288.555C393.732 272.945 412.746 249.143 421.12 232.098C426.507 220.733 428.958 208.773 428.47 196.789C428.139 95.2407 338.664 36.3071 244.173 14.9835Z" fill="white"/>
<path fill-rule="evenodd" clip-rule="evenodd" d="M209.793 27.7153C220.532 25.1254 231.784 25.2191 242.477 27.9873C328.582 47.9941 410.106 103.328 410.384 198.711C410.826 209.967 408.589 221.201 403.678 231.878C396.042 247.889 378.709 270.25 338.935 284.923L337.327 284.91L337.328 284.911C339.404 292.965 341.48 301.02 344.628 309.084C353.005 332.73 350.107 358.963 336.007 379.207C294.777 439.95 150.645 438.751 110.432 377.33C96.6708 356.854 93.6745 330.573 102.979 307.073C103.286 306.178 103.593 305.29 103.898 304.406C106.324 297.374 108.654 290.623 110.145 283.019C83.4264 274.224 56.7921 255.248 45.2229 228.895C40.4898 218.139 39.5118 206.878 39.0696 195.621C39.8676 99.712 126.047 46.3089 209.793 27.7153ZM115.263 311.998C107.601 331.224 110.097 353.215 121.206 370.454C156.133 423.257 289.013 424.363 324.813 372.148C336.743 355.1 339.069 333.15 332.264 313.803C319.137 281.543 318.962 238.139 319.007 232.781C270.409 213.086 178.246 212.855 129.867 231.207C129.822 236.565 128.39 279.956 115.263 311.998ZM332.353 238.786C332.795 250.042 333.777 260.767 335.291 272.033C354.089 266.831 375.133 249.323 383.25 239.745L383.254 239.209C383.437 217.241 318.274 192.05 224.508 191.27C130.742 190.49 65.7039 214.598 65.5211 236.566C65.5211 236.566 64.9853 236.561 64.9808 237.097C77.7154 252.207 94.2317 263.597 112.931 270.182C114.633 258.944 115.793 248.237 116.423 236.989C115.961 237.261 115.515 237.517 115.082 237.766C112.992 238.967 111.207 239.993 109.417 241.753C106.72 243.874 102.97 243.843 100.313 241.142C97.6561 238.441 97.6873 234.69 100.389 232.033C137.671 194.834 311.809 196.283 348.467 234.097C350.588 236.794 350.557 240.545 348.391 243.206C345.69 245.863 341.404 245.827 338.742 243.662C337.325 242.221 335.905 241.257 334.484 240.292C333.773 239.81 333.063 239.328 332.353 238.786ZM270.681 180.402C326.896 186.228 377.673 201.654 391.948 224.814C397.399 213.607 397.484 203.426 396.511 191.63C393.291 192.139 390.072 192.648 386.857 192.621C367.568 192.46 350.529 179.458 345.332 160.125C340.665 141.331 349.403 121.578 366.629 112.076C361.325 105.602 355.484 99.1231 349.099 93.7115C335.53 114.497 309.196 123.923 285.678 116.761C261.625 109.595 245.197 87.4885 245.407 62.3056C245.461 55.8759 247.121 49.4596 249.318 43.0478C240.763 40.8332 233.811 39.1679 225.238 39.0965C228.797 62.1674 213.607 84.5465 190.518 90.2486C169.577 95.4328 148.225 85.61 138.201 66.772C129.052 71.5185 120.43 77.3411 112.344 83.1681C129.419 91.8836 139.983 110.19 139.291 128.939C138.595 148.224 126.665 165.271 108.916 173.161C91.1721 180.515 70.8382 177.131 56.474 164.687C52.0493 181.262 49.1697 205.351 56.5328 222.023C70.0973 201.774 110.935 188.182 159.211 182.153C156.17 161.23 165.452 140.409 182.701 128.229C199.945 116.583 222.462 115.163 241.135 124.964C259.808 134.764 271.435 154.151 271.261 175.048C271.243 177.191 271.23 178.799 270.681 180.402ZM232.195 246.937C236.061 246.969 239.169 250.129 239.137 253.995L238.873 285.605C238.841 289.471 241.949 292.631 245.815 292.663L273.67 292.895C277.535 292.927 280.643 296.087 280.611 299.953L280.42 322.913C280.388 326.779 277.228 329.887 273.362 329.855L245.507 329.623C241.642 329.591 238.482 332.699 238.449 336.565L238.186 368.175C238.154 372.041 234.994 375.149 231.128 375.117L214.624 374.98C210.758 374.947 207.65 371.787 207.683 367.922L207.946 336.311C207.978 332.445 204.87 329.285 201.004 329.253L173.15 329.021C169.284 328.989 166.176 325.829 166.208 321.963L166.399 299.003C166.431 295.137 169.591 292.029 173.457 292.061L201.312 292.293C205.178 292.325 208.337 289.217 208.37 285.351L208.633 253.741C208.665 249.875 211.825 246.767 215.691 246.799L232.195 246.937Z" fill="#FF0404"/>
</g>
<defs>
<filter id="filter0_d_101_17" x="17.0103" y="8.69254" width="415.521" height="431.992" filterUnits="userSpaceOnUse" color-interpolation-filters="sRGB">
<feFlood flood-opacity="0" result="BackgroundImageFix"/>
<feColorMatrix in="SourceAlpha" type="matrix" values="0 0 0 0 0 0 0 0 0 0 0 0 0 0 0 0 0 0 127 0" result="hardAlpha"/>
<feOffset/>
<feGaussianBlur stdDeviation="2"/>
<feColorMatrix type="matrix" values="0 0 0 0 0 0 0 0 0 0 0 0 0 0 0 0 0 0 0.25 0"/>
<feBlend mode="normal" in2="BackgroundImageFix" result="effect1_dropShadow_101_17"/>
<feBlend mode="normal" in="SourceGraphic" in2="effect1_dropShadow_101_17" result="shape"/>
</filter>
</defs>
</svg>
